G04 Shared 2D and 3D stencil sample*
%FSLAX34Y34*%
%MOMM*%
%ADD10R,1.3X4*%
%ADD11R,4X1.3*%
%ADD12R,1.4X2.2*%
%ADD13R,3X4*%
%ADD14C,2.4*%
D10*
X316500Y280000D03*
D10*
X316500Y720000D03*
D11*
X270000Y326500D03*
D11*
X720000Y326500D03*
D10*
X350500Y280000D03*
D10*
X350500Y720000D03*
D11*
X270000Y357500D03*
D11*
X720000Y357500D03*
D10*
X384500Y280000D03*
D10*
X384500Y720000D03*
D11*
X270000Y388500D03*
D11*
X720000Y388500D03*
D10*
X418500Y280000D03*
D10*
X418500Y720000D03*
D11*
X270000Y419500D03*
D11*
X720000Y419500D03*
D10*
X452500Y280000D03*
D10*
X452500Y720000D03*
D11*
X270000Y450500D03*
D11*
X720000Y450500D03*
D10*
X486500Y280000D03*
D10*
X486500Y720000D03*
D11*
X270000Y481500D03*
D11*
X720000Y481500D03*
D10*
X520500Y280000D03*
D10*
X520500Y720000D03*
D11*
X270000Y512500D03*
D11*
X720000Y512500D03*
D10*
X554500Y280000D03*
D10*
X554500Y720000D03*
D11*
X270000Y543500D03*
D11*
X720000Y543500D03*
D10*
X588500Y280000D03*
D10*
X588500Y720000D03*
D11*
X270000Y574500D03*
D11*
X720000Y574500D03*
D10*
X622500Y280000D03*
D10*
X622500Y720000D03*
D11*
X270000Y605500D03*
D11*
X720000Y605500D03*
D10*
X656500Y280000D03*
D10*
X656500Y720000D03*
D11*
X270000Y636500D03*
D11*
X720000Y636500D03*
D10*
X690500Y280000D03*
D10*
X690500Y720000D03*
D11*
X270000Y667500D03*
D11*
X720000Y667500D03*
D12*
X127000Y161000D03*
D12*
X127000Y221000D03*
D12*
X154000Y161000D03*
D12*
X154000Y221000D03*
D12*
X181000Y161000D03*
D12*
X181000Y221000D03*
D12*
X208000Y161000D03*
D12*
X208000Y221000D03*
D12*
X807000Y161000D03*
D12*
X807000Y221000D03*
D12*
X834000Y161000D03*
D12*
X834000Y221000D03*
D12*
X861000Y161000D03*
D12*
X861000Y221000D03*
D12*
X888000Y161000D03*
D12*
X888000Y221000D03*
D12*
X127000Y741000D03*
D12*
X127000Y801000D03*
D12*
X154000Y741000D03*
D12*
X154000Y801000D03*
D12*
X181000Y741000D03*
D12*
X181000Y801000D03*
D12*
X208000Y741000D03*
D12*
X208000Y801000D03*
D12*
X807000Y741000D03*
D12*
X807000Y801000D03*
D12*
X834000Y741000D03*
D12*
X834000Y801000D03*
D12*
X861000Y741000D03*
D12*
X861000Y801000D03*
D12*
X888000Y741000D03*
D12*
X888000Y801000D03*
D12*
X397000Y111000D03*
D12*
X397000Y171000D03*
D12*
X424000Y111000D03*
D12*
X424000Y171000D03*
D12*
X451000Y111000D03*
D12*
X451000Y171000D03*
D12*
X478000Y111000D03*
D12*
X478000Y171000D03*
D12*
X437000Y831000D03*
D12*
X437000Y891000D03*
D12*
X464000Y831000D03*
D12*
X464000Y891000D03*
D12*
X491000Y831000D03*
D12*
X491000Y891000D03*
D12*
X518000Y831000D03*
D12*
X518000Y891000D03*
D13*
X145000Y370000D03*
D13*
X145000Y440000D03*
D13*
X145000Y510000D03*
D13*
X145000Y580000D03*
D13*
X825000Y370000D03*
D13*
X825000Y440000D03*
D13*
X825000Y510000D03*
D13*
X825000Y580000D03*
D13*
X375000Y450000D03*
D13*
X375000Y520000D03*
D13*
X525000Y450000D03*
D13*
X525000Y520000D03*
D14*
X132000Y932000D03*
D14*
X132000Y62000D03*
D14*
X232000Y932000D03*
D14*
X232000Y62000D03*
D14*
X332000Y932000D03*
D14*
X332000Y62000D03*
D14*
X432000Y932000D03*
D14*
X432000Y62000D03*
D14*
X532000Y932000D03*
D14*
X532000Y62000D03*
D14*
X632000Y932000D03*
D14*
X632000Y62000D03*
D14*
X732000Y932000D03*
D14*
X732000Y62000D03*
D14*
X832000Y932000D03*
D14*
X832000Y62000D03*
M02*
